<svg xmlns="http://www.w3.org/2000/svg" xmlns:xlink="http://www.w3.org/1999/xlink" version="1.1" x="0px" y="0px" viewBox="0 0 50 62.5" enable-background="new 0 0 50 50" xml:space="preserve"><g><path d="M24.6,21.3c0,0,0.1-0.1,0.3-0.2c-0.8,0.3-1.7,0.5-2.5,0.5c-1.3,0-2.6-0.4-3.7-1.1c-3.2,3-8.1,2.7-10.9-0.2   c-2.6,9,2.5,18.8,11.8,21.8c-0.3-0.8-0.3-1.5-0.3-2.2c-3.9-1.5-7-4.5-8.7-8.2c3.8,3.3,2.3,0.3,4.5,2.5c0.2,0.3,1.3,0.8,1.9,0.5   c-0.1,0.5,0.5,0.8,0.6,1.3c0,0.1,0,0.3,0.1,0.4c0.1,0.1,0.3,0,0.3-0.1c0.8,0.7,0.5,0.5,0.7,0.7c0,0,1,0.4,1.1,0.4   c0.1,0,0.3,0.5,0.5,0.3c0,0,0-0.1-0.1-0.1c0,0,0,0-0.1-0.1c0-0.1,0.1,0,0.2-0.2c0.1,0-0.1,0,0.6-0.7c-0.6-0.1-1.2,0.4-1.5-0.2   c-0.1-0.3,0-0.2-0.3-0.4c-1.2-0.6,1.6-2.7-2.4-2.5c0.5-2.3,1.1-2,1-2.4c-0.1-0.4-1.6-0.4-1.9,0.5c0,0.1-0.1,0.3-0.1,0.4   c-0.1,0.1-0.2,0.2-0.3,0.1c-0.3-0.3-0.6,0.1-0.9,0c-0.4-0.1-1.3-1.4-1-2c0.1-0.3-0.1-0.5-0.1-0.8c0-0.3,0.3-0.6,0.3-0.9   c0-0.1-0.2-0.7,0.8-0.9c0.3-0.1,0.2-0.1,0.3-0.3c0.1-0.1,0.4-0.1,0.5-0.1c0.1,0,0.1-0.1,0.2-0.1c0.4-0.1,0.6,0.4,0.9,0.5   c0.2,0,0.5-0.2,0.5-0.3c0-0.1-0.1-0.1,0-0.2c0.4-0.1,0.9-0.1,1.2,0.1c0.6,0.3,0.5,0.1,0.8,0.1c0.5-0.1,0.3,0.7,0.6,1.6   c0.3,0.8,0.8,0.5,0.8,0.3c0-0.1-0.1-0.3-0.1-0.4c0-0.1,0-0.2,0.1-0.3c0.2-0.7-1.3-1.5,0.6-2.5c0.5-0.3,1.1-0.7,1.6-1   c-0.2-0.7,0.1-1.1,0.2-1.3c0-0.5,0-0.3,0.3-0.5c0.1-0.2,0-0.6,0.6-0.6c0.1,0,0.6,0,0.7-0.2c0.1-0.2-0.2-0.2-0.3-0.3   C23.7,21.5,24.5,21.3,24.6,21.3z M33.5,9.3c1.9,1.5,2.4,3.3,2.4,4.7c0.2,0.1,0.3-0.1,0.5,0.2c0.4,0.5,0,0.8-0.2,0.8   c0.2,0.4,0.3,0.8,0.5,1.2c0.5,0.1,0.4,0.3,0.4,0.4c0.1,0.1,0.2,0.2,0.3,0.3c0.3,0.2,0.3,0.6,0.4,0.9c0.3,0.9,0.4,0.6,0.1,1.6   c-0.5,2.5,0.6,1.6,0.6,3.4c0,0.9,0.4,0.6,0.8,1.8c0.1,0.3,0.3,0.2,0.4,0.2c0.3,0,0.2,0.4,0.3,0.6c0.1,0.1,0.2,0.2,0.3,0.1   c0.2-0.2-0.1-0.1,0.5-0.4c0,2.2-0.5,4.3-1.3,6.2c0.6,0.3,1.2,0.8,1.6,1.3C45.1,24.4,42.1,14,33.5,9.3z"/><path d="M20.1,37.6c-0.1,0.1-0.1,0.1-0.2,0c0-0.1,0-0.1,0.1-0.1C20.1,37.5,20.1,37.5,20.1,37.6z"/><path d="M46.1,38.6c-0.1-2.3-2-4.3-4.6-4.1c-0.1,0-0.2,0-0.3,0c-1.4-3.1-5.4-3.9-7.9-1.6c-2.8-2.3-7.4-1-7.8,2.9   c-7.4-0.1-6.4,9.4-0.4,8.9c0,0,0,0,0,0c1.3,4.5,7.1,5.7,10.1,2.1c2.2,1.9,5.5,1.5,7.1-0.8C47.2,49.5,52.4,41.6,46.1,38.6z"/><path d="M31.5,9.3c-0.1-2.7-2.4-5.1-5.5-4.8c-0.1,0-0.2,0-0.3,0c-1.7-3.6-6.4-4.5-9.4-1.9C13-0.1,7.6,1.4,7.2,6.1   c-0.3,0-0.2,0-0.5,0C3.4,5.8,1,8.4,1,11.3c0,2.9,2.4,5.5,5.7,5.3c0,0,0,0,0,0c1.5,5.3,8.3,6.7,11.9,2.5c2.6,2.3,6.5,1.8,8.4-0.9   C32.7,22.1,39,12.9,31.5,9.3z"/></g><text x="0" y="65" fill="#000000" font-size="5px" font-weight="bold" font-family="'Helvetica Neue', Helvetica, Arial-Unicode, Arial, Sans-serif">Created by ProSymbols</text><text x="0" y="70" fill="#000000" font-size="5px" font-weight="bold" font-family="'Helvetica Neue', Helvetica, Arial-Unicode, Arial, Sans-serif">from the Noun Project</text></svg>