<?xml version="1.0" encoding="UTF-8"?>
<svg width="56px" height="55px" viewBox="0 0 56 55" version="1.1" xmlns="http://www.w3.org/2000/svg" xmlns:xlink="http://www.w3.org/1999/xlink">
    <!-- Generator: Sketch 43 (38999) - http://www.bohemiancoding.com/sketch -->
    <title>icon</title>
    <desc>Created with Sketch.</desc>
    <defs></defs>
    <g id="Symbols" stroke="none" stroke-width="1" fill="none" fill-rule="evenodd">
        <g id="icon" fill-rule="nonzero">
            <g id="Group">
                <path d="M28.5181273,23.8375 C28.5181273,23.8375 28.6304922,23.725 28.8552221,23.6125 C27.9563025,23.95 26.945018,24.175 26.0460984,24.175 C24.5853541,24.175 23.1246098,23.725 21.8885954,22.9375 C18.2929172,26.3125 12.7870348,25.975 9.64081633,22.7125 C6.71932773,32.8375 12.44994,43.8625 22.89988,47.2375 C22.5627851,46.3375 22.5627851,45.55 22.5627851,44.7625 C18.1805522,43.075 14.6972389,39.7 12.7870348,35.5375 C17.0569028,39.25 15.3714286,35.875 17.8434574,38.35 C18.0681873,38.6875 19.3042017,39.25 19.9783914,38.9125 C19.8660264,39.475 20.5402161,39.8125 20.652581,40.375 C20.652581,40.4875 20.652581,40.7125 20.764946,40.825 C20.8773109,40.9375 21.1020408,40.825 21.1020408,40.7125 C22.0009604,41.5 21.6638655,41.275 21.8885954,41.5 C21.8885954,41.5 23.0122449,41.95 23.1246098,41.95 C23.2369748,41.95 23.4617047,42.5125 23.6864346,42.2875 C23.6864346,42.2875 23.6864346,42.175 23.5740696,42.175 C23.5740696,42.175 23.5740696,42.175 23.4617047,42.0625 C23.4617047,41.95 23.5740696,42.0625 23.6864346,41.8375 C23.7987995,41.8375 23.5740696,41.8375 24.3606242,41.05 C23.6864346,40.9375 23.0122449,41.5 22.6751501,40.825 C22.5627851,40.4875 22.6751501,40.6 22.3380552,40.375 C20.9896759,39.7 24.1358944,37.3375 19.6412965,37.5625 C20.2031212,34.975 20.8773109,35.3125 20.764946,34.8625 C20.652581,34.4125 18.9671068,34.4125 18.630012,35.425 C18.630012,35.5375 18.5176471,35.7625 18.5176471,35.875 C18.4052821,35.9875 18.2929172,36.1 18.1805522,35.9875 C17.8434574,35.65 17.5063625,36.1 17.1692677,35.9875 C16.7198079,35.875 15.7085234,34.4125 16.0456182,33.7375 C16.1579832,33.4 15.9332533,33.175 15.9332533,32.8375 C15.9332533,32.5 16.2703481,32.1625 16.2703481,31.825 C16.2703481,31.7125 16.0456182,31.0375 17.1692677,30.8125 C17.5063625,30.7 17.3939976,30.7 17.5063625,30.475 C17.6187275,30.3625 17.9558223,30.3625 18.0681873,30.3625 C18.1805522,30.3625 18.1805522,30.25 18.2929172,30.25 C18.742377,30.1375 18.9671068,30.7 19.3042017,30.8125 C19.5289316,30.8125 19.8660264,30.5875 19.8660264,30.475 C19.8660264,30.3625 19.7536615,30.3625 19.8660264,30.25 C20.3154862,30.1375 20.8773109,30.1375 21.2144058,30.3625 C21.8885954,30.7 21.7762305,30.475 22.1133253,30.475 C22.6751501,30.3625 22.4504202,31.2625 22.787515,32.275 C23.1246098,33.175 23.6864346,32.8375 23.6864346,32.6125 C23.6864346,32.5 23.5740696,32.275 23.5740696,32.1625 C23.5740696,32.05 23.5740696,31.9375 23.6864346,31.825 C23.9111645,31.0375 22.2256903,30.1375 24.3606242,29.0125 C24.922449,28.675 25.5966387,28.225 26.1584634,27.8875 C25.9337335,27.1 26.2708283,26.65 26.3831933,26.425 C26.3831933,25.8625 26.3831933,26.0875 26.7202881,25.8625 C26.8326531,25.6375 26.7202881,25.1875 27.3944778,25.1875 C27.5068427,25.1875 28.0686675,25.1875 28.1810324,24.9625 C28.2933974,24.7375 27.9563025,24.7375 27.8439376,24.625 C27.5068427,24.0625 28.4057623,23.8375 28.5181273,23.8375 Z M38.5186074,10.3375 C40.6535414,12.025 41.2153661,14.05 41.2153661,15.625 C41.440096,15.7375 41.552461,15.5125 41.7771909,15.85 C42.2266507,16.4125 41.7771909,16.75 41.552461,16.75 C41.7771909,17.2 41.8895558,17.65 42.1142857,18.1 C42.6761104,18.2125 42.5637455,18.4375 42.5637455,18.55 C42.6761104,18.6625 42.7884754,18.775 42.9008403,18.8875 C43.2379352,19.1125 43.2379352,19.5625 43.3503001,19.9 C43.687395,20.9125 43.7997599,20.575 43.4626651,21.7 C42.9008403,24.5125 44.1368547,23.5 44.1368547,25.525 C44.1368547,26.5375 44.5863145,26.2 45.0357743,27.55 C45.1481393,27.8875 45.3728691,27.775 45.4852341,27.775 C45.8223289,27.775 45.709964,28.225 45.8223289,28.45 C45.9346939,28.5625 46.0470588,28.675 46.1594238,28.5625 C46.3841537,28.3375 46.0470588,28.45 46.7212485,28.1125 C46.7212485,30.5875 46.1594238,32.95 45.2605042,35.0875 C45.9346939,35.425 46.6088836,35.9875 47.0583433,36.55 C51.5529412,27.325 48.1819928,15.625 38.5186074,10.3375 Z" id="Shape" fill="#6DC607"></path>
                <path d="M23.4617047,42.175 C23.3493397,42.2875 23.3493397,42.2875 23.2369748,42.175 C23.2369748,42.0625 23.2369748,42.0625 23.3493397,42.0625 C23.4617047,42.0625 23.4617047,42.0625 23.4617047,42.175 Z" id="Shape" fill="#000000"></path>
                <path d="M52.6765906,43.3 C52.5642257,40.7125 50.4292917,38.4625 47.5078031,38.6875 L47.1707083,38.6875 C45.597599,35.2 41.1030012,34.3 38.2938776,36.8875 C35.1476591,34.3 29.9788715,35.7625 29.5294118,40.15 C21.2144058,40.0375 22.3380552,50.725 29.079952,50.1625 L29.079952,50.1625 C30.5406963,55.225 37.0578631,56.575 40.4288115,52.525 C42.9008403,54.6625 46.6088836,54.2125 48.4067227,51.625 C53.912605,55.5625 59.7555822,46.675 52.6765906,43.3 Z" id="Shape" fill="#FAFAFA"></path>
                <path d="M36.2713085,10.3375 C36.1589436,7.3 33.5745498,4.6 30.0912365,4.9375 L29.7541417,4.9375 C27.8439376,0.8875 22.5627851,-0.125 19.1918367,2.8 C15.4837935,-0.2375 9.41608643,1.45 8.96662665,6.7375 L8.40480192,6.7375 C4.6967587,6.4 2,9.325 2,12.5875 C2,15.85 4.6967587,18.775 8.40480192,18.55 L8.40480192,18.55 C10.0902761,24.5125 17.7310924,26.0875 21.7762305,21.3625 C24.6977191,23.95 29.079952,23.3875 31.214886,20.35 C37.6196879,24.7375 44.6986795,14.3875 36.2713085,10.3375 Z" id="Shape" fill="#FAFAFA"></path>
            </g>
        </g>
    </g>
</svg>