<?xml version="1.0" encoding="UTF-8"?>
<svg width="54px" height="54px" viewBox="0 0 54 54" version="1.1" xmlns="http://www.w3.org/2000/svg" xmlns:xlink="http://www.w3.org/1999/xlink" style="background: #0060AB;">
    <!-- Generator: Sketch 43 (38999) - http://www.bohemiancoding.com/sketch -->
    <title>ic_air_quality</title>
    <desc>Created with Sketch.</desc>
    <defs></defs>
    <g id="Page-1" stroke="none" stroke-width="1" fill="none" fill-rule="evenodd">
        <g id="ic_air_quality">
            <g id="icon" transform="translate(4.000000, 5.000000)">
                <g id="Group">
                    <path d="M22.9163523,19.07 C22.9163523,19.07 23.0066455,18.98 23.187232,18.89 C22.464886,19.16 21.6522466,19.34 20.9299005,19.34 C19.7560881,19.34 18.5822758,18.98 17.5890499,18.35 C14.6996656,21.05 10.2752958,20.78 7.74708455,18.17 C5.39945978,26.27 10.0044161,35.09 18.4016892,37.79 C18.1308095,37.07 18.1308095,36.44 18.1308095,35.81 C14.6093723,34.46 11.8102813,31.76 10.2752958,28.43 C13.7064397,31.4 12.3520408,28.7 14.3384925,30.68 C14.5190791,30.95 15.5123049,31.4 16.0540645,31.13 C15.9637712,31.58 16.5055308,31.85 16.595824,32.3 C16.595824,32.39 16.595824,32.57 16.6861173,32.66 C16.7764106,32.75 16.9569971,32.66 16.9569971,32.57 C17.6793432,33.2 17.4084634,33.02 17.5890499,33.2 C17.5890499,33.2 18.4919825,33.56 18.5822758,33.56 C18.672569,33.56 18.8531555,34.01 19.0337421,33.83 C19.0337421,33.83 19.0337421,33.74 18.9434488,33.74 C18.9434488,33.74 18.9434488,33.74 18.8531555,33.65 C18.8531555,33.56 18.9434488,33.65 19.0337421,33.47 C19.1240353,33.47 18.9434488,33.47 19.5755016,32.84 C19.0337421,32.75 18.4919825,33.2 18.2211027,32.66 C18.1308095,32.39 18.2211027,32.48 17.9502229,32.3 C16.8667038,31.76 19.3949151,29.87 15.7831847,30.05 C16.234651,27.98 16.7764106,28.25 16.6861173,27.89 C16.595824,27.53 15.2414251,27.53 14.9705454,28.34 C14.9705454,28.43 14.8802521,28.61 14.8802521,28.7 C14.7899588,28.79 14.6996656,28.88 14.6093723,28.79 C14.3384925,28.52 14.0676128,28.88 13.796733,28.79 C13.4355599,28.7 12.6229206,27.53 12.8938004,26.99 C12.9840936,26.72 12.8035071,26.54 12.8035071,26.27 C12.8035071,26 13.0743869,25.73 13.0743869,25.46 C13.0743869,25.37 12.8938004,24.83 13.796733,24.65 C14.0676128,24.56 13.9773195,24.56 14.0676128,24.38 C14.157906,24.29 14.4287858,24.29 14.5190791,24.29 C14.6093723,24.29 14.6093723,24.2 14.6996656,24.2 C15.0608386,24.11 15.2414251,24.56 15.5123049,24.65 C15.6928914,24.65 15.9637712,24.47 15.9637712,24.38 C15.9637712,24.29 15.873478,24.29 15.9637712,24.2 C16.3249443,24.11 16.7764106,24.11 17.0472903,24.29 C17.5890499,24.56 17.4987566,24.38 17.7696364,24.38 C18.2211027,24.29 18.0405162,25.01 18.311396,25.82 C18.5822758,26.54 19.0337421,26.27 19.0337421,26.09 C19.0337421,26 18.9434488,25.82 18.9434488,25.73 C18.9434488,25.64 18.9434488,25.55 19.0337421,25.46 C19.2143286,24.83 17.8599297,24.11 19.5755016,23.21 C20.0269679,22.94 20.5687275,22.58 21.0201938,22.31 C20.8396073,21.68 21.1104871,21.32 21.2007803,21.14 C21.2007803,20.69 21.2007803,20.87 21.4716601,20.69 C21.5619534,20.51 21.4716601,20.15 22.0134197,20.15 C22.1037129,20.15 22.5551792,20.15 22.6454725,19.97 C22.7357657,19.79 22.464886,19.79 22.3745927,19.7 C22.1037129,19.25 22.826059,19.07 22.9163523,19.07 Z M30.9524524,8.27 C32.6680244,9.62 33.1194907,11.24 33.1194907,12.5 C33.3000772,12.59 33.3903704,12.41 33.570957,12.68 C33.93213,13.13 33.570957,13.4 33.3903704,13.4 C33.570957,13.76 33.6612502,14.12 33.8418367,14.48 C34.293303,14.57 34.2030098,14.75 34.2030098,14.84 C34.293303,14.93 34.3835963,15.02 34.4738896,15.11 C34.7447693,15.29 34.7447693,15.65 34.8350626,15.92 C35.1059424,16.73 35.1962356,16.46 34.9253559,17.36 C34.4738896,19.61 35.4671154,18.8 35.4671154,20.42 C35.4671154,21.23 35.8282885,20.96 36.1894615,22.04 C36.2797548,22.31 36.4603413,22.22 36.5506345,22.22 C36.8215143,22.22 36.7312211,22.58 36.8215143,22.76 C36.9118076,22.85 37.0021008,22.94 37.0923941,22.85 C37.2729806,22.67 37.0021008,22.76 37.5438604,22.49 C37.5438604,24.47 37.0923941,26.36 36.370048,28.07 C36.9118076,28.34 37.4535671,28.79 37.8147402,29.24 C41.4264706,21.86 38.7176728,12.5 30.9524524,8.27 Z" id="Shape" fill="#6DC607" fill-rule="nonzero"></path>
                    <path d="M18.8531555,33.74 C18.7628623,33.83 18.7628623,33.83 18.672569,33.74 C18.672569,33.65 18.672569,33.65 18.7628623,33.65 C18.8531555,33.65 18.8531555,33.65 18.8531555,33.74 Z" id="Shape" fill="#000000" fill-rule="nonzero"></path>
                    <path d="M42.3294032,34.64 C42.2391099,32.57 40.523538,30.77 38.1759132,30.95 L37.9050334,30.95 C36.6409278,28.16 33.0291974,27.44 30.7718659,29.51 C28.2436546,27.44 24.0901646,28.61 23.7289916,32.12 C17.0472903,32.03 17.9502229,40.58 23.3678186,40.13 L23.3678186,40.13 C24.5416309,44.18 29.77864,45.26 32.4874378,42.02 C34.4738896,43.73 37.4535671,43.37 38.8982593,41.3 C43.3226291,44.45 48.0178786,37.34 42.3294032,34.64 Z" id="Shape" fill="#FAFAFA" fill-rule="nonzero"></path>
                    <path d="M29.1465872,8.27 C29.0562939,5.84 26.979549,3.68 24.1804579,3.95 L23.9095781,3.95 C22.3745927,0.71 18.1308095,-0.1 15.4220117,2.24 C12.4423341,-0.19 7.56649803,1.16 7.20532499,5.39 L6.75385869,5.39 C3.7741811,5.12 1.60714286,7.46 1.60714286,10.07 C1.60714286,12.68 3.7741811,15.02 6.75385869,14.84 L6.75385869,14.84 C8.10825759,19.61 14.2481993,20.87 17.4987566,17.09 C19.8463814,19.16 23.3678186,18.71 25.0833905,16.28 C30.2301063,19.79 35.9185817,11.51 29.1465872,8.27 Z" id="Shape" fill="#FAFAFA" fill-rule="nonzero"></path>
                </g>
            </g>
        </g>
    </g>
</svg>